<svg width="24" height="24" viewBox="0 0 24 24" fill="none" xmlns="http://www.w3.org/2000/svg">
<path d="M12 2.25L20.25 6V12C20.25 16.5 16.5 20.25 12 22.5C7.5 20.25 3.75 16.5 3.75 12V6L12 2.25Z" fill="#A865FF" fill-opacity="0.08" stroke="#A865FF" stroke-width="1.125"/>
<path d="M12 7.5L15 9V12.75L12 14.25L9 12.75V9L12 7.5Z" fill="#A3FF12" fill-opacity="0.1" stroke="#A3FF12" stroke-width="0.75"/>
<path d="M12 12C12.6213 12 13.125 11.4963 13.125 10.875C13.125 10.2537 12.6213 9.75 12 9.75C11.3787 9.75 10.875 10.2537 10.875 10.875C10.875 11.4963 11.3787 12 12 12Z" fill="#A3FF12"/>
</svg>
